:SAMPLES-PER-SECOND 30
:FULLY-SPECIFIED
:DEGREES
95
root  78.0605 37.8327 -0.363777 74.4699 85.2494 77.6936
RightUpLeg  -6.75213 -0.457474 -5.04813
RightLeg  59.6943 8.98942 -2.71895
RightFoot  23.7686 -6.16279 18.2844
RightToes  -1.74624e-010 -1.59028e-015 9.93923e-017
Spine  -0.942628 1.64373 -2.25845
Spine1  12.207 2.45397 -8.55619
HEad  -10.6882 -0.8268 4.87397
LeftShoulder1  9.93923e-017 0 1.22299e-017
LeftArm  -11.7904 36.1651 -75.4764
LeftForeArm  -10.0217 -8.43386 -4.26146
LeftHand  1.06885 7.8076 -4.88204
RightShoulder  1.98785e-016 -4.96962e-017 1.55301e-017
RightArm  29.1898 -26.3586 90.9579
RightForeArm  -44.8861 20.333 -18.5576
RightHand  1.52521 -13.1631 -5.09231
LeftUpLeg  -17.3708 -12.4474 -8.06665
LeftLeg  26.2491 0.204779 5.41564
LeftFoot  -5.03582 -0.132834 1.61853
LeftToes  2.64666e-010 -8.50449e-011 8.41596e-012
96
root  79.6611 38.2879 -0.422129 91.3184 86.6015 94.9855
RightUpLeg  -10.9759 -1.39569 -3.49743
RightLeg  61.5407 9.01941 -2.99852
RightFoot  18.8037 -3.66579 12.7564
RightToes  -1.74624e-010 -1.59028e-015 9.93923e-017
Spine  -0.72336 0.292918 -2.9211
Spine1  11.3009 0.456518 -6.521
HEad  -9.10581 0.588079 4.28457
LeftShoulder1  9.93923e-017 0 1.22299e-017
LeftArm  -0.364527 30.1989 -78.997
LeftForeArm  -20.8413 -16.0826 0.416637
LeftHand  1.02586 7.35941 -4.34698
RightShoulder  1.98785e-016 -4.96962e-017 1.55301e-017
RightArm  20.4636 -31.7926 90.9754
RightForeArm  -34.0222 18.4385 -7.58994
RightHand  1.49352 -13.3272 -4.2174
LeftUpLeg  -12.9251 -11.674 -7.67122
LeftLeg  23.938 -1.33449 4.81583
LeftFoot  -6.83043 -0.132654 1.9467
LeftToes  2.64666e-010 -8.50449e-011 8.41596e-012
97
root  81.2447 38.6138 -0.440822 124.815 87.3648 128.716
RightUpLeg  -14.9218 -2.23162 -1.79916
RightLeg  60.7476 8.97563 -2.95545
RightFoot  14.4972 -2.11421 8.66352
RightToes  -1.74624e-010 -1.59028e-015 9.93923e-017
Spine  -0.420842 -0.926769 -4.37847
Spine1  10.0868 -1.64398 -3.39385
HEad  -7.38388 1.65062 3.08728
LeftShoulder1  9.93923e-017 0 1.22299e-017
LeftArm  18.1746 24.8565 -81.7439
LeftForeArm  -40.0534 -23.2122 10.2668
LeftHand  1.00789 7.18485 -3.61348
RightShoulder  1.98785e-016 -4.96962e-017 1.55301e-017
RightArm  10.0544 -38.1285 89.141
RightForeArm  -22.8247 14.9289 0.600543
RightHand  1.39596 -13.3096 -2.67663
LeftUpLeg  -9.02034 -8.40798 -7.08316
LeftLeg  21.7573 -5.48981 4.05708
LeftFoot  -8.24386 -0.115947 2.03359
LeftToes  2.64666e-010 -8.50449e-011 8.41596e-012
98
root  82.8109 38.7961 -0.430412 152.633 87.1153 156.466
RightUpLeg  -18.7358 -2.37463 -0.530537
RightLeg  57.7871 9.01934 -2.42948
RightFoot  12.4914 -1.99297 8.79098
RightToes  -1.74624e-010 -1.59028e-015 9.93923e-017
Spine  -0.239983 -1.7716 -6.45042
Spine1  8.90572 -3.30359 0.0338026
HEad  -6.51966 2.75956 2.10698
LeftShoulder1  9.93923e-017 0 1.22299e-017
LeftArm  25.9763 19.7863 -82.9065
LeftForeArm  -48.6739 -27.7809 18.4758
LeftHand  0.983366 6.96767 -2.76685
RightShoulder  1.98785e-016 -4.96962e-017 1.55301e-017
RightArm  5.77872 -45.4636 85.8572
RightForeArm  -18.5516 12.8493 2.93648
RightHand  1.32861 -13.3208 -1.56804
LeftUpLeg  -5.95556 -4.12826 -6.12904
LeftLeg  20.3305 -10.2048 3.10886
LeftFoot  -9.39779 -0.117003 2.57898
LeftToes  2.64666e-010 -8.50449e-011 8.41596e-012
99
root  84.3643 38.9036 -0.41784 165.965 86.5981 169.74
RightUpLeg  -21.7665 -2.29154 0.280238
RightLeg  52.5213 9.29472 -1.42632
RightFoot  10.9865 -2.46606 11.5467
RightToes  -1.74624e-010 -1.59028e-015 9.93923e-017
Spine  -0.0623971 -2.3919 -8.22615
Spine1  8.01331 -4.43835 3.00022
HEad  -6.84416 3.73386 1.95288
LeftShoulder1  9.93923e-017 0 1.22299e-017
LeftArm  20.5942 14.4291 -82.6409
LeftForeArm  -43.2342 -33.3594 20.4686
LeftHand  0.988437 7.01528 -2.54746
RightShoulder  1.98785e-016 -4.96962e-017 1.55301e-017
RightArm  6.47039 -53.0924 81.2799
RightForeArm  -18.8945 13.3314 2.06143
RightHand  1.34312 -13.5596 -1.39098
LeftUpLeg  -2.9815 -1.1155 -4.88583
LeftLeg  19.2327 -13.5697 2.06051
LeftFoot  -10.7655 -0.111495 3.46141
LeftToes  2.64666e-010 -8.50449e-011 8.41596e-012
100
root  85.8746 38.935 -0.405235 172.394 85.9303 176.187
RightUpLeg  -23.686 -2.4496 0.732829
RightLeg  44.8616 10.1689 0.0413938
RightFoot  9.08289 -2.34495 11.8839
RightToes  -1.74624e-010 -1.59028e-015 9.93923e-017
Spine  0.218162 -3.06242 -9.58782
Spine1  7.43778 -5.37953 5.37839
HEad  -7.73265 4.54345 2.25187
LeftShoulder1  9.93923e-017 0 1.22299e-017
LeftArm  17.27 9.35508 -81.8216
LeftForeArm  -41.1505 -38.4575 23.0407
LeftHand  1.04275 7.47852 -2.80612
RightShoulder  1.98785e-016 -4.96962e-017 1.55301e-017
RightArm  12.1383 -59.8631 75.6674
RightForeArm  -23.2444 15.0378 -0.198451
RightHand  1.36506 -13.655 -1.57471
LeftUpLeg  0.0830169 0.316535 -3.71368
LeftLeg  18.117 -15.7525 1.19934
LeftFoot  -12.2158 -0.0734459 3.50897
LeftToes  2.64666e-010 -8.50449e-011 8.41596e-012
101
root  87.3446 38.9048 -0.389732 174.784 85.421 178.339
RightUpLeg  -24.6411 -2.40928 0.983932
RightLeg  34.5444 12.064 1.63437
RightFoot  7.92797 -1.42344 7.71132
RightToes  -1.74624e-010 -1.59028e-015 9.93923e-017
Spine  -0.0399856 -3.94345 -10.5812
Spine1  7.67683 -6.35651 7.07357
HEad  -8.6916 5.92251 2.52856
LeftShoulder1  9.93923e-017 0 1.22299e-017
LeftArm  14.1894 5.03562 -80.33
LeftForeArm  -40.2868 -42.8408 25.5417
LeftHand  1.09064 7.88823 -2.791
RightShoulder  1.98785e-016 -4.96962e-017 1.55301e-017
RightArm  18.645 -64.6163 69.0439
RightForeArm  -26.3736 15.9652 -1.63914
RightHand  1.35979 -13.4402 -1.86077
LeftUpLeg  2.88546 0.885844 -2.82882
LeftLeg  16.8517 -17.1058 0.713395
LeftFoot  -13.2208 -0.0427012 2.73087
LeftToes  2.64666e-010 -8.50449e-011 8.41596e-012
